<?xml version="1.0" encoding="UTF-8" standalone="no"?>
<!DOCTYPE svg PUBLIC "-//W3C//DTD SVG 1.1//EN"
 "http://www.w3.org/Graphics/SVG/1.1/DTD/svg11.dtd">
<!-- Generated by graphviz version 2.42.4 (0)
 -->
<!-- Title: G Pages: 1 -->
<svg width="2284pt" height="781pt"
 viewBox="0.00 0.00 2284.00 781.00" xmlns="http://www.w3.org/2000/svg" xmlns:xlink="http://www.w3.org/1999/xlink">
<g id="graph0" class="graph" transform="scale(1 1) rotate(0) translate(18 763)">
<title>G</title>
<polygon fill="white" stroke="transparent" points="-18,18 -18,-763 2266,-763 2266,18 -18,18"/>
<g id="clust1" class="cluster">
<title>cluster_offline</title>
<path fill="white" stroke="#b7b7b7" stroke-dasharray="5,2" d="M696.5,-510C696.5,-510 1321,-510 1321,-510 1327,-510 1333,-516 1333,-522 1333,-522 1333,-725 1333,-725 1333,-731 1327,-737 1321,-737 1321,-737 696.5,-737 696.5,-737 690.5,-737 684.5,-731 684.5,-725 684.5,-725 684.5,-522 684.5,-522 684.5,-516 690.5,-510 696.5,-510"/>
<text text-anchor="middle" x="1008.75" y="-721.8" font-family="Helvetica,sans-Serif" font-size="14.00">Offline Python plugins</text>
</g>
<g id="clust2" class="cluster">
<title>cluster_runtime</title>
<path fill="#eef5e8" stroke="#9db58c" d="M20,-267C20,-267 2062,-267 2062,-267 2068,-267 2074,-273 2074,-279 2074,-279 2074,-490 2074,-490 2074,-496 2068,-502 2062,-502 2062,-502 20,-502 20,-502 14,-502 8,-496 8,-490 8,-490 8,-279 8,-279 8,-273 14,-267 20,-267"/>
<text text-anchor="middle" x="1041" y="-486.8" font-family="Helvetica,sans-Serif" font-size="14.00">Online SmartNIC runtime (DPDK)</text>
</g>
<g id="clust3" class="cluster">
<title>cluster_kernels</title>
<path fill="white" stroke="#b7b7b7" stroke-dasharray="5,2" d="M1639,-8C1639,-8 1816,-8 1816,-8 1822,-8 1828,-14 1828,-20 1828,-20 1828,-247 1828,-247 1828,-253 1822,-259 1816,-259 1816,-259 1639,-259 1639,-259 1633,-259 1627,-253 1627,-247 1627,-247 1627,-20 1627,-20 1627,-14 1633,-8 1639,-8"/>
<text text-anchor="middle" x="1727.5" y="-243.8" font-family="Helvetica,sans-Serif" font-size="14.00">Inference microkernels</text>
</g>
<g id="clust4" class="cluster">
<title>cluster_log</title>
<path fill="white" stroke="#b7b7b7" stroke-dasharray="5,2" d="M1972,-184C1972,-184 2228,-184 2228,-184 2234,-184 2240,-190 2240,-196 2240,-196 2240,-247 2240,-247 2240,-253 2234,-259 2228,-259 2228,-259 1972,-259 1972,-259 1966,-259 1960,-253 1960,-247 1960,-247 1960,-196 1960,-196 1960,-190 1966,-184 1972,-184"/>
<text text-anchor="middle" x="2100" y="-243.8" font-family="Helvetica,sans-Serif" font-size="14.00">Optional logging plane</text>
</g>
<!-- pcap -->
<g id="node1" class="node">
<title>pcap</title>
<path fill="#f9f6e8" stroke="#444444" d="M802.5,-630C802.5,-630 704.5,-630 704.5,-630 698.5,-630 692.5,-624 692.5,-618 692.5,-618 692.5,-606 692.5,-606 692.5,-600 698.5,-594 704.5,-594 704.5,-594 802.5,-594 802.5,-594 808.5,-594 814.5,-600 814.5,-606 814.5,-606 814.5,-618 814.5,-618 814.5,-624 808.5,-630 802.5,-630"/>
<text text-anchor="middle" x="753.5" y="-615.2" font-family="Helvetica,sans-Serif" font-size="11.00">PCAP/CSV datasets</text>
<text text-anchor="middle" x="753.5" y="-603.2" font-family="Helvetica,sans-Serif" font-size="11.00">IoT | DoH | ICS</text>
</g>
<!-- train_mlp -->
<g id="node2" class="node">
<title>train_mlp</title>
<path fill="#f9f6e8" stroke="#444444" d="M1027,-554C1027,-554 917,-554 917,-554 911,-554 905,-548 905,-542 905,-542 905,-530 905,-530 905,-524 911,-518 917,-518 917,-518 1027,-518 1027,-518 1033,-518 1039,-524 1039,-530 1039,-530 1039,-542 1039,-542 1039,-548 1033,-554 1027,-554"/>
<text text-anchor="middle" x="972" y="-539.2" font-family="Helvetica,sans-Serif" font-size="11.00">export_mlp.py</text>
<text text-anchor="middle" x="972" y="-527.2" font-family="Helvetica,sans-Serif" font-size="11.00">PyTorch MLP + scaler</text>
</g>
<!-- pcap&#45;&gt;train_mlp -->
<g id="edge1" class="edge">
<title>pcap&#45;&gt;train_mlp</title>
<path fill="none" stroke="#444444" d="M805.81,-593.99C837.64,-582.81 878.66,-568.41 911.86,-556.76"/>
<polygon fill="#444444" stroke="#444444" points="913.07,-559.31 919.69,-554.01 911.21,-554.02 913.07,-559.31"/>
</g>
<!-- train_bnn -->
<g id="node3" class="node">
<title>train_bnn</title>
<path fill="#f9f6e8" stroke="#444444" d="M1028,-630C1028,-630 916,-630 916,-630 910,-630 904,-624 904,-618 904,-618 904,-606 904,-606 904,-600 910,-594 916,-594 916,-594 1028,-594 1028,-594 1034,-594 1040,-600 1040,-606 1040,-606 1040,-618 1040,-618 1040,-624 1034,-630 1028,-630"/>
<text text-anchor="middle" x="972" y="-615.2" font-family="Helvetica,sans-Serif" font-size="11.00">export_bnn.py</text>
<text text-anchor="middle" x="972" y="-603.2" font-family="Helvetica,sans-Serif" font-size="11.00">PyTorch BNN + scaler</text>
</g>
<!-- pcap&#45;&gt;train_bnn -->
<g id="edge2" class="edge">
<title>pcap&#45;&gt;train_bnn</title>
<path fill="none" stroke="#444444" d="M814.52,-612C839.58,-612 868.98,-612 895.49,-612"/>
<polygon fill="#444444" stroke="#444444" points="895.62,-614.8 903.62,-612 895.62,-609.2 895.62,-614.8"/>
</g>
<!-- train_rf -->
<g id="node4" class="node">
<title>train_rf</title>
<path fill="#f9f6e8" stroke="#444444" d="M1021.5,-706C1021.5,-706 922.5,-706 922.5,-706 916.5,-706 910.5,-700 910.5,-694 910.5,-694 910.5,-682 910.5,-682 910.5,-676 916.5,-670 922.5,-670 922.5,-670 1021.5,-670 1021.5,-670 1027.5,-670 1033.5,-676 1033.5,-682 1033.5,-682 1033.5,-694 1033.5,-694 1033.5,-700 1027.5,-706 1021.5,-706"/>
<text text-anchor="middle" x="972" y="-691.2" font-family="Helvetica,sans-Serif" font-size="11.00">export_rf.py</text>
<text text-anchor="middle" x="972" y="-679.2" font-family="Helvetica,sans-Serif" font-size="11.00">sklearn RF + scaler</text>
</g>
<!-- pcap&#45;&gt;train_rf -->
<g id="edge3" class="edge">
<title>pcap&#45;&gt;train_rf</title>
<path fill="none" stroke="#444444" d="M805.81,-630.01C837.64,-641.19 878.66,-655.59 911.86,-667.24"/>
<polygon fill="#444444" stroke="#444444" points="911.21,-669.98 919.69,-669.99 913.07,-664.69 911.21,-669.98"/>
</g>
<!-- headers -->
<g id="node5" class="node">
<title>headers</title>
<path fill="#e5f0ff" stroke="#444444" d="M1313,-592C1313,-592 1101,-592 1101,-592 1095,-592 1089,-586 1089,-580 1089,-580 1089,-568 1089,-568 1089,-562 1095,-556 1101,-556 1101,-556 1313,-556 1313,-556 1319,-556 1325,-562 1325,-568 1325,-568 1325,-580 1325,-580 1325,-586 1319,-592 1313,-592"/>
<text text-anchor="middle" x="1207" y="-577.2" font-family="Helvetica,sans-Serif" font-size="11.00">C headers</text>
<text text-anchor="middle" x="1207" y="-565.2" font-family="Helvetica,sans-Serif" font-size="11.00">model_mlp.h | model_bnn.h | model_rf.h</text>
</g>
<!-- train_mlp&#45;&gt;headers -->
<g id="edge4" class="edge">
<title>train_mlp&#45;&gt;headers</title>
<path fill="none" stroke="#444444" d="M1039.15,-546.79C1054.29,-549.26 1070.84,-551.96 1087.45,-554.67"/>
<polygon fill="#444444" stroke="#444444" points="1087.26,-557.47 1095.6,-556 1088.16,-551.94 1087.26,-557.47"/>
</g>
<!-- train_bnn&#45;&gt;headers -->
<g id="edge5" class="edge">
<title>train_bnn&#45;&gt;headers</title>
<path fill="none" stroke="#444444" d="M1040.08,-601.06C1054.98,-598.63 1071.21,-595.98 1087.49,-593.33"/>
<polygon fill="#444444" stroke="#444444" points="1088.04,-596.08 1095.48,-592.02 1087.14,-590.55 1088.04,-596.08"/>
</g>
<!-- train_rf&#45;&gt;headers -->
<g id="edge6" class="edge">
<title>train_rf&#45;&gt;headers</title>
<path fill="none" stroke="#444444" d="M1009.92,-669.94C1051.04,-649.82 1117.5,-617.3 1161.47,-595.79"/>
<polygon fill="#444444" stroke="#444444" points="1162.91,-598.2 1168.87,-592.17 1160.45,-593.17 1162.91,-598.2"/>
</g>
<!-- dispatch -->
<g id="node15" class="node">
<title>dispatch</title>
<path fill="#e5f0ff" stroke="#444444" d="M1574,-319C1574,-319 1480,-319 1480,-319 1474,-319 1468,-313 1468,-307 1468,-307 1468,-287 1468,-287 1468,-281 1474,-275 1480,-275 1480,-275 1574,-275 1574,-275 1580,-275 1586,-281 1586,-287 1586,-287 1586,-307 1586,-307 1586,-313 1580,-319 1574,-319"/>
<text text-anchor="middle" x="1527" y="-306.2" font-family="Helvetica,sans-Serif" font-size="11.00">inference.c</text>
<text text-anchor="middle" x="1527" y="-294.2" font-family="Helvetica,sans-Serif" font-size="11.00">model dispatch</text>
<text text-anchor="middle" x="1527" y="-282.2" font-family="Helvetica,sans-Serif" font-size="11.00">&#45;&#45;model mlp|rf|bnn</text>
</g>
<!-- headers&#45;&gt;dispatch -->
<g id="edge21" class="edge">
<title>headers&#45;&gt;dispatch</title>
<path fill="none" stroke="#444444" stroke-dasharray="5,2" d="M1254.65,-555.91C1279.25,-545.17 1309.18,-530.1 1333,-512 1406.31,-456.28 1473.73,-369.92 1506,-325.51"/>
<polygon fill="#444444" stroke="#444444" points="1508.28,-327.14 1510.69,-319.01 1503.74,-323.86 1508.28,-327.14"/>
<text text-anchor="middle" x="1396.5" y="-499.8" font-family="Helvetica,sans-Serif" font-size="9.00">compile&#45;time include</text>
</g>
<!-- rss -->
<g id="node6" class="node">
<title>rss</title>
<path fill="#f9f6e8" stroke="#444444" d="M85,-387C85,-387 28,-387 28,-387 22,-387 16,-381 16,-375 16,-375 16,-363 16,-363 16,-357 22,-351 28,-351 28,-351 85,-351 85,-351 91,-351 97,-357 97,-363 97,-363 97,-375 97,-375 97,-381 91,-387 85,-387"/>
<text text-anchor="middle" x="56.5" y="-372.2" font-family="Helvetica,sans-Serif" font-size="11.00">Port RX/TX</text>
<text text-anchor="middle" x="56.5" y="-360.2" font-family="Helvetica,sans-Serif" font-size="11.00">RSS queues</text>
</g>
<!-- workers -->
<g id="node7" class="node">
<title>workers</title>
<path fill="#fff4cc" stroke="#444444" d="M246,-387C246,-387 158,-387 158,-387 152,-387 146,-381 146,-375 146,-375 146,-363 146,-363 146,-357 152,-351 158,-351 158,-351 246,-351 246,-351 252,-351 258,-357 258,-363 258,-363 258,-375 258,-375 258,-381 252,-387 246,-387"/>
<text text-anchor="middle" x="202" y="-372.2" font-family="Helvetica,sans-Serif" font-size="11.00">N worker lcores</text>
<text text-anchor="middle" x="202" y="-360.2" font-family="Helvetica,sans-Serif" font-size="11.00">queue&#45;local state</text>
</g>
<!-- rss&#45;&gt;workers -->
<g id="edge7" class="edge">
<title>rss&#45;&gt;workers</title>
<path fill="none" stroke="#444444" d="M97.09,-369C109.71,-369 124.01,-369 137.87,-369"/>
<polygon fill="#444444" stroke="#444444" points="137.96,-371.8 145.96,-369 137.96,-366.2 137.96,-371.8"/>
</g>
<!-- parser -->
<g id="node8" class="node">
<title>parser</title>
<path fill="#f9f6e8" stroke="#444444" d="M405,-387C405,-387 319,-387 319,-387 313,-387 307,-381 307,-375 307,-375 307,-363 307,-363 307,-357 313,-351 319,-351 319,-351 405,-351 405,-351 411,-351 417,-357 417,-363 417,-363 417,-375 417,-375 417,-381 411,-387 405,-387"/>
<text text-anchor="middle" x="362" y="-372.2" font-family="Helvetica,sans-Serif" font-size="11.00">packet_parser.c</text>
<text text-anchor="middle" x="362" y="-360.2" font-family="Helvetica,sans-Serif" font-size="11.00">IPv4/TCP + VLAN</text>
</g>
<!-- workers&#45;&gt;parser -->
<g id="edge8" class="edge">
<title>workers&#45;&gt;parser</title>
<path fill="none" stroke="#444444" d="M258.26,-369C271.3,-369 285.3,-369 298.63,-369"/>
<polygon fill="#444444" stroke="#444444" points="298.84,-371.8 306.84,-369 298.84,-366.2 298.84,-371.8"/>
</g>
<!-- select -->
<g id="node9" class="node">
<title>select</title>
<path fill="#fff4cc" stroke="#444444" d="M591,-387C591,-387 478,-387 478,-387 472,-387 466,-381 466,-375 466,-375 466,-363 466,-363 466,-357 472,-351 478,-351 478,-351 591,-351 591,-351 597,-351 603,-357 603,-363 603,-363 603,-375 603,-375 603,-381 597,-387 591,-387"/>
<text text-anchor="middle" x="534.5" y="-372.2" font-family="Helvetica,sans-Serif" font-size="11.00">Runtime profile select</text>
<text text-anchor="middle" x="534.5" y="-360.2" font-family="Helvetica,sans-Serif" font-size="11.00">&#45;&#45;profile iot|doh|ics</text>
</g>
<!-- parser&#45;&gt;select -->
<g id="edge9" class="edge">
<title>parser&#45;&gt;select</title>
<path fill="none" stroke="#444444" d="M417.42,-369C430.17,-369 443.98,-369 457.49,-369"/>
<polygon fill="#444444" stroke="#444444" points="457.84,-371.8 465.84,-369 457.84,-366.2 457.84,-371.8"/>
</g>
<!-- iot -->
<g id="node10" class="node">
<title>iot</title>
<path fill="#f9f6e8" stroke="#444444" d="M803,-311C803,-311 704,-311 704,-311 698,-311 692,-305 692,-299 692,-299 692,-287 692,-287 692,-281 698,-275 704,-275 704,-275 803,-275 803,-275 809,-275 815,-281 815,-287 815,-287 815,-299 815,-299 815,-305 809,-311 803,-311"/>
<text text-anchor="middle" x="753.5" y="-296.2" font-family="Helvetica,sans-Serif" font-size="11.00">features_iot.c</text>
<text text-anchor="middle" x="753.5" y="-284.2" font-family="Helvetica,sans-Serif" font-size="11.00">8 TCP flow features</text>
</g>
<!-- select&#45;&gt;iot -->
<g id="edge10" class="edge">
<title>select&#45;&gt;iot</title>
<path fill="none" stroke="#444444" d="M586.93,-350.99C618.83,-339.81 659.95,-325.41 693.22,-313.76"/>
<polygon fill="#444444" stroke="#444444" points="694.44,-316.3 701.07,-311.01 692.59,-311.01 694.44,-316.3"/>
</g>
<!-- doh -->
<g id="node11" class="node">
<title>doh</title>
<path fill="#f9f6e8" stroke="#444444" d="M842,-387C842,-387 665,-387 665,-387 659,-387 653,-381 653,-375 653,-375 653,-363 653,-363 653,-357 659,-351 665,-351 665,-351 842,-351 842,-351 848,-351 854,-357 854,-363 854,-363 854,-375 854,-375 854,-381 848,-387 842,-387"/>
<text text-anchor="middle" x="753.5" y="-372.2" font-family="Helvetica,sans-Serif" font-size="11.00">features_doh.c</text>
<text text-anchor="middle" x="753.5" y="-360.2" font-family="Helvetica,sans-Serif" font-size="11.00">16 bidirectional TLS/DoH features</text>
</g>
<!-- select&#45;&gt;doh -->
<g id="edge11" class="edge">
<title>select&#45;&gt;doh</title>
<path fill="none" stroke="#444444" d="M603.27,-369C616.37,-369 630.39,-369 644.41,-369"/>
<polygon fill="#444444" stroke="#444444" points="644.65,-371.8 652.65,-369 644.65,-366.2 644.65,-371.8"/>
</g>
<!-- ics -->
<g id="node12" class="node">
<title>ics</title>
<path fill="#f9f6e8" stroke="#444444" d="M843,-471C843,-471 664,-471 664,-471 658,-471 652,-465 652,-459 652,-459 652,-439 652,-439 652,-433 658,-427 664,-427 664,-427 843,-427 843,-427 849,-427 855,-433 855,-439 855,-439 855,-459 855,-459 855,-465 849,-471 843,-471"/>
<text text-anchor="middle" x="753.5" y="-458.2" font-family="Helvetica,sans-Serif" font-size="11.00">features_ics.c</text>
<text text-anchor="middle" x="753.5" y="-446.2" font-family="Helvetica,sans-Serif" font-size="11.00">Modbus request/response</text>
<text text-anchor="middle" x="753.5" y="-434.2" font-family="Helvetica,sans-Serif" font-size="11.00">16 sensor EWMA/CUSUM features</text>
</g>
<!-- select&#45;&gt;ics -->
<g id="edge12" class="edge">
<title>select&#45;&gt;ics</title>
<path fill="none" stroke="#444444" d="M584.47,-387.05C614.1,-397.98 652.3,-412.06 684.79,-424.04"/>
<polygon fill="#444444" stroke="#444444" points="684.01,-426.73 692.49,-426.87 685.95,-421.48 684.01,-426.73"/>
</g>
<!-- contract -->
<g id="node13" class="node">
<title>contract</title>
<path fill="#f9f6e8" stroke="#444444" d="M1018.5,-371C1018.5,-371 925.5,-371 925.5,-371 919.5,-371 913.5,-365 913.5,-359 913.5,-359 913.5,-339 913.5,-339 913.5,-333 919.5,-327 925.5,-327 925.5,-327 1018.5,-327 1018.5,-327 1024.5,-327 1030.5,-333 1030.5,-339 1030.5,-339 1030.5,-359 1030.5,-359 1030.5,-365 1024.5,-371 1018.5,-371"/>
<text text-anchor="middle" x="972" y="-358.2" font-family="Helvetica,sans-Serif" font-size="11.00">feature_contract.c</text>
<text text-anchor="middle" x="972" y="-346.2" font-family="Helvetica,sans-Serif" font-size="11.00">validity checks</text>
<text text-anchor="middle" x="972" y="-334.2" font-family="Helvetica,sans-Serif" font-size="11.00">(optional)</text>
</g>
<!-- iot&#45;&gt;contract -->
<g id="edge13" class="edge">
<title>iot&#45;&gt;contract</title>
<path fill="none" stroke="#444444" d="M815.1,-308.67C843.22,-315.95 876.72,-324.61 905.44,-332.04"/>
<polygon fill="#444444" stroke="#444444" points="904.95,-334.81 913.4,-334.1 906.36,-329.39 904.95,-334.81"/>
</g>
<!-- doh&#45;&gt;contract -->
<g id="edge14" class="edge">
<title>doh&#45;&gt;contract</title>
<path fill="none" stroke="#444444" d="M854.2,-359.79C871.49,-358.19 889.08,-356.57 905.18,-355.08"/>
<polygon fill="#444444" stroke="#444444" points="905.74,-357.84 913.45,-354.32 905.23,-352.26 905.74,-357.84"/>
</g>
<!-- ics&#45;&gt;contract -->
<g id="edge15" class="edge">
<title>ics&#45;&gt;contract</title>
<path fill="none" stroke="#444444" d="M809.04,-427C824.02,-420.74 840.22,-413.78 855,-407 876.97,-396.93 900.9,-385.11 921.3,-374.78"/>
<polygon fill="#444444" stroke="#444444" points="922.78,-377.17 928.64,-371.05 920.24,-372.18 922.78,-377.17"/>
</g>
<!-- norm -->
<g id="node14" class="node">
<title>norm</title>
<path fill="#f9f6e8" stroke="#444444" d="M1274,-342C1274,-342 1140,-342 1140,-342 1134,-342 1128,-336 1128,-330 1128,-330 1128,-318 1128,-318 1128,-312 1134,-306 1140,-306 1140,-306 1274,-306 1274,-306 1280,-306 1286,-312 1286,-318 1286,-318 1286,-330 1286,-330 1286,-336 1280,-342 1274,-342"/>
<text text-anchor="middle" x="1207" y="-327.2" font-family="Helvetica,sans-Serif" font-size="11.00">model_prepare_input()</text>
<text text-anchor="middle" x="1207" y="-315.2" font-family="Helvetica,sans-Serif" font-size="11.00">scaler + dimension check</text>
</g>
<!-- contract&#45;&gt;norm -->
<g id="edge16" class="edge">
<title>contract&#45;&gt;norm</title>
<path fill="none" stroke="#444444" d="M1030.6,-342.82C1057.45,-339.94 1089.97,-336.45 1119.68,-333.26"/>
<polygon fill="#444444" stroke="#444444" points="1120.32,-336.01 1127.97,-332.37 1119.72,-330.44 1120.32,-336.01"/>
</g>
<!-- norm&#45;&gt;dispatch -->
<g id="edge17" class="edge">
<title>norm&#45;&gt;dispatch</title>
<path fill="none" stroke="#444444" d="M1286.2,-317.36C1339.42,-312.84 1409.08,-306.93 1459.61,-302.64"/>
<polygon fill="#444444" stroke="#444444" points="1460.12,-305.4 1467.86,-301.94 1459.65,-299.82 1460.12,-305.4"/>
</g>
<!-- actions -->
<g id="node16" class="node">
<title>actions</title>
<path fill="#f9f6e8" stroke="#444444" d="M1802,-313C1802,-313 1653,-313 1653,-313 1647,-313 1641,-307 1641,-301 1641,-301 1641,-289 1641,-289 1641,-283 1647,-277 1653,-277 1653,-277 1802,-277 1802,-277 1808,-277 1814,-283 1814,-289 1814,-289 1814,-301 1814,-301 1814,-307 1808,-313 1802,-313"/>
<text text-anchor="middle" x="1727.5" y="-298.2" font-family="Helvetica,sans-Serif" font-size="11.00">Action</text>
<text text-anchor="middle" x="1727.5" y="-286.2" font-family="Helvetica,sans-Serif" font-size="11.00">forward | drop anomaly | log</text>
</g>
<!-- dispatch&#45;&gt;actions -->
<g id="edge18" class="edge">
<title>dispatch&#45;&gt;actions</title>
<path fill="none" stroke="#444444" d="M1586.22,-296.41C1600.73,-296.27 1616.67,-296.11 1632.43,-295.95"/>
<polygon fill="#444444" stroke="#444444" points="1632.68,-298.75 1640.65,-295.87 1632.62,-293.15 1632.68,-298.75"/>
</g>
<!-- mlp -->
<g id="node18" class="node">
<title>mlp</title>
<path fill="#e5f0ff" stroke="#444444" d="M1803.5,-228C1803.5,-228 1651.5,-228 1651.5,-228 1645.5,-228 1639.5,-222 1639.5,-216 1639.5,-216 1639.5,-196 1639.5,-196 1639.5,-190 1645.5,-184 1651.5,-184 1651.5,-184 1803.5,-184 1803.5,-184 1809.5,-184 1815.5,-190 1815.5,-196 1815.5,-196 1815.5,-216 1815.5,-216 1815.5,-222 1809.5,-228 1803.5,-228"/>
<text text-anchor="middle" x="1727.5" y="-215.2" font-family="Helvetica,sans-Serif" font-size="11.00">infer_mlp.c</text>
<text text-anchor="middle" x="1727.5" y="-203.2" font-family="Helvetica,sans-Serif" font-size="11.00">scalar dense + NEON dense</text>
<text text-anchor="middle" x="1727.5" y="-191.2" font-family="Helvetica,sans-Serif" font-size="11.00">scalar tails for any layer size</text>
</g>
<!-- dispatch&#45;&gt;mlp -->
<g id="edge22" class="edge">
<title>dispatch&#45;&gt;mlp</title>
<path fill="none" stroke="#444444" d="M1576.05,-274.97C1604.61,-261.88 1640.96,-245.22 1670.77,-231.55"/>
<polygon fill="#444444" stroke="#444444" points="1672.1,-234.02 1678.2,-228.14 1669.76,-228.93 1672.1,-234.02"/>
</g>
<!-- rf -->
<g id="node19" class="node">
<title>rf</title>
<path fill="#e5f0ff" stroke="#444444" d="M1808,-144C1808,-144 1647,-144 1647,-144 1641,-144 1635,-138 1635,-132 1635,-132 1635,-112 1635,-112 1635,-106 1641,-100 1647,-100 1647,-100 1808,-100 1808,-100 1814,-100 1820,-106 1820,-112 1820,-112 1820,-132 1820,-132 1820,-138 1814,-144 1808,-144"/>
<text text-anchor="middle" x="1727.5" y="-131.2" font-family="Helvetica,sans-Serif" font-size="11.00">infer_rf.c</text>
<text text-anchor="middle" x="1727.5" y="-119.2" font-family="Helvetica,sans-Serif" font-size="11.00">iterative tree traversal</text>
<text text-anchor="middle" x="1727.5" y="-107.2" font-family="Helvetica,sans-Serif" font-size="11.00">static arrays, no JSON runtime</text>
</g>
<!-- dispatch&#45;&gt;rf -->
<g id="edge23" class="edge">
<title>dispatch&#45;&gt;rf</title>
<path fill="none" stroke="#444444" d="M1539.56,-274.82C1555.66,-245.83 1587.37,-195.09 1627,-164 1634.86,-157.84 1643.75,-152.42 1652.91,-147.71"/>
<polygon fill="#444444" stroke="#444444" points="1654.36,-150.12 1660.3,-144.07 1651.89,-145.09 1654.36,-150.12"/>
</g>
<!-- bnn -->
<g id="node20" class="node">
<title>bnn</title>
<path fill="#e5f0ff" stroke="#444444" d="M1775,-60C1775,-60 1680,-60 1680,-60 1674,-60 1668,-54 1668,-48 1668,-48 1668,-28 1668,-28 1668,-22 1674,-16 1680,-16 1680,-16 1775,-16 1775,-16 1781,-16 1787,-22 1787,-28 1787,-28 1787,-48 1787,-48 1787,-54 1781,-60 1775,-60"/>
<text text-anchor="middle" x="1727.5" y="-47.2" font-family="Helvetica,sans-Serif" font-size="11.00">infer_bnn.c</text>
<text text-anchor="middle" x="1727.5" y="-35.2" font-family="Helvetica,sans-Serif" font-size="11.00">XNOR&#45;popcount</text>
<text text-anchor="middle" x="1727.5" y="-23.2" font-family="Helvetica,sans-Serif" font-size="11.00">64&#45;bit tail masking</text>
</g>
<!-- dispatch&#45;&gt;bnn -->
<g id="edge24" class="edge">
<title>dispatch&#45;&gt;bnn</title>
<path fill="none" stroke="#444444" d="M1532.47,-274.83C1542.24,-231.74 1569.39,-135.99 1627,-80 1636.47,-70.8 1648.25,-63.49 1660.36,-57.71"/>
<polygon fill="#444444" stroke="#444444" points="1661.77,-60.15 1667.92,-54.32 1659.48,-55.04 1661.77,-60.15"/>
</g>
<!-- tx -->
<g id="node17" class="node">
<title>tx</title>
<path fill="#f9f6e8" stroke="#444444" d="M2054,-313C2054,-313 2015,-313 2015,-313 2009,-313 2003,-307 2003,-301 2003,-301 2003,-289 2003,-289 2003,-283 2009,-277 2015,-277 2015,-277 2054,-277 2054,-277 2060,-277 2066,-283 2066,-289 2066,-289 2066,-301 2066,-301 2066,-307 2060,-313 2054,-313"/>
<text text-anchor="middle" x="2034.5" y="-292.2" font-family="Helvetica,sans-Serif" font-size="11.00">TX burst</text>
</g>
<!-- actions&#45;&gt;tx -->
<g id="edge19" class="edge">
<title>actions&#45;&gt;tx</title>
<path fill="none" stroke="#444444" d="M1814.27,-295C1873.49,-295 1949.42,-295 1994.61,-295"/>
<polygon fill="#444444" stroke="#444444" points="1994.68,-297.8 2002.68,-295 1994.68,-292.2 1994.68,-297.8"/>
</g>
<!-- ring -->
<g id="node21" class="node">
<title>ring</title>
<path fill="#f9f6e8" stroke="#444444" d="M2089,-228C2089,-228 1980,-228 1980,-228 1974,-228 1968,-222 1968,-216 1968,-216 1968,-204 1968,-204 1968,-198 1974,-192 1980,-192 1980,-192 2089,-192 2089,-192 2095,-192 2101,-198 2101,-204 2101,-204 2101,-216 2101,-216 2101,-222 2095,-228 2089,-228"/>
<text text-anchor="middle" x="2034.5" y="-213.2" font-family="Helvetica,sans-Serif" font-size="11.00">rte_ring + mempool</text>
<text text-anchor="middle" x="2034.5" y="-201.2" font-family="Helvetica,sans-Serif" font-size="11.00">nonblocking enqueue</text>
</g>
<!-- actions&#45;&gt;ring -->
<g id="edge25" class="edge">
<title>actions&#45;&gt;ring</title>
<path fill="none" stroke="#444444" stroke-dasharray="5,2" d="M1798.41,-276.96C1808.35,-274.33 1818.44,-271.62 1828,-269 1873.47,-256.53 1924.42,-241.91 1964.21,-230.34"/>
<polygon fill="#444444" stroke="#444444" points="1965.11,-233 1972.01,-228.07 1963.55,-227.62 1965.11,-233"/>
<text text-anchor="middle" x="1894" y="-276.8" font-family="Helvetica,sans-Serif" font-size="9.00">APP_ENABLE_LOGS=1</text>
<text text-anchor="middle" x="1894" y="-266.8" font-family="Helvetica,sans-Serif" font-size="9.00">&#45;&#45;log&#45;mode async</text>
</g>
<!-- logcore -->
<g id="node22" class="node">
<title>logcore</title>
<path fill="#f9f6e8" stroke="#444444" d="M2220,-228C2220,-228 2162,-228 2162,-228 2156,-228 2150,-222 2150,-216 2150,-216 2150,-204 2150,-204 2150,-198 2156,-192 2162,-192 2162,-192 2220,-192 2220,-192 2226,-192 2232,-198 2232,-204 2232,-204 2232,-216 2232,-216 2232,-222 2226,-228 2220,-228"/>
<text text-anchor="middle" x="2191" y="-213.2" font-family="Helvetica,sans-Serif" font-size="11.00">logger lcore</text>
<text text-anchor="middle" x="2191" y="-201.2" font-family="Helvetica,sans-Serif" font-size="11.00">CSV writer</text>
</g>
<!-- ring&#45;&gt;logcore -->
<g id="edge20" class="edge">
<title>ring&#45;&gt;logcore</title>
<path fill="none" stroke="#444444" d="M2101.02,-210C2114.65,-210 2128.78,-210 2141.65,-210"/>
<polygon fill="#444444" stroke="#444444" points="2141.91,-212.8 2149.91,-210 2141.91,-207.2 2141.91,-212.8"/>
</g>
</g>
</svg>
